<!-- icon666.com - MILLIONS vector ICONS FREE --><svg viewBox="0 0 128 128" xmlns="http://www.w3.org/2000/svg"><g><path d="m64.115 83.356a11.25 11.25 0 1 0 11.25 11.25 11.263 11.263 0 0 0 -11.25-11.25zm0 19a7.75 7.75 0 1 1 7.75-7.75 7.759 7.759 0 0 1 -7.75 7.75z"/><path d="m84.535 69.519a34.755 34.755 0 0 0 -41.129.2 6.749 6.749 0 0 0 -1.4 9.443 6.784 6.784 0 0 0 5.424 2.727 6.693 6.693 0 0 0 4.019-1.331 21.257 21.257 0 0 1 25.13-.135 6.75 6.75 0 0 0 7.952-10.909zm-1.35 7.37a3.249 3.249 0 0 1 -4.54.711 24.756 24.756 0 0 0 -29.278.153 3.25 3.25 0 1 1 -3.875-5.219 31.255 31.255 0 0 1 36.982-.186 3.25 3.25 0 0 1 .711 4.541z"/><path d="m95.554 52.535a53.33 53.33 0 0 0 -63.156.207 6.75 6.75 0 0 0 4.026 12.172 6.687 6.687 0 0 0 4.016-1.329 39.829 39.829 0 0 1 47.145-.152 6.75 6.75 0 0 0 7.969-10.9zm-1.362 7.365a3.25 3.25 0 0 1 -4.541.7 43.329 43.329 0 0 0 -51.295.167 3.249 3.249 0 0 1 -4.546-.667 3.255 3.255 0 0 1 .673-4.547 49.83 49.83 0 0 1 59-.193 3.249 3.249 0 0 1 .7 4.543z"/><path d="m109.681 40.314a6.706 6.706 0 0 0 -2.722-4.391 73.45 73.45 0 0 0 -85.949.211 6.75 6.75 0 1 0 7.939 10.919 59.95 59.95 0 0 1 70.131-.168 6.751 6.751 0 0 0 10.6-6.571zm-4.023 2.986a3.255 3.255 0 0 1 -4.535.742 63.45 63.45 0 0 0 -74.232.179 3.25 3.25 0 1 1 -3.823-5.257 69.949 69.949 0 0 1 81.848-.2 3.249 3.249 0 0 1 .742 4.536z"/></g></svg>